<mxfile host="app.diagrams.net" modified="2023-08-08T10:01:16.526Z" agent="Mozilla/5.0 (Windows NT 10.0; Win64; x64) AppleWebKit/537.36 (KHTML, like Gecko) Chrome/115.0.0.0 Safari/537.36 Edg/115.0.1901.188" etag="n-cukngI5Ri0IY7iidIR" version="21.6.6" type="github">
  <diagram id="prtHgNgQTEPvFCAcTncT" name="Page-1">
    <mxGraphModel dx="2460" dy="1715" grid="0" gridSize="10" guides="1" tooltips="1" connect="1" arrows="1" fold="1" page="0" pageScale="1" pageWidth="827" pageHeight="1169" background="#FFF6E3" math="0" shadow="0">
      <root>
        <mxCell id="0" />
        <mxCell id="1" parent="0" />
        <mxCell id="dNxyNK7c78bLwvsdeMH5-11" value="m" style="swimlane;startSize=20;horizontal=1;containerType=tree;glass=0;labelBackgroundColor=#FFF6E3;labelBorderColor=none;fontSize=20;fontStyle=1" parent="1" vertex="1">
          <mxGeometry x="-629" y="-761" width="1430" height="1300" as="geometry" />
        </mxCell>
        <UserObject label="&lt;font style=&quot;font-size: 20px;&quot;&gt;&lt;span style=&quot;font-size: 20px;&quot;&gt;Jack&lt;/span&gt;&lt;br style=&quot;font-size: 20px;&quot;&gt;&lt;font style=&quot;font-size: 20px;&quot;&gt;用戶&lt;/font&gt;&lt;br style=&quot;font-size: 20px;&quot;&gt;&lt;/font&gt;" name="Alison Donovan" position="System Admin" location="Office 3" email="me@example.com" placeholders="1" link="https://www.draw.io" id="yKEikfB0ai0au9G5UeXW-21">
          <mxCell style="label;image=https://cdn3.iconfinder.com/data/icons/user-avatars-1/512/users-2-128.png;whiteSpace=wrap;html=1;rounded=0;glass=0;fontSize=20;labelBackgroundColor=#FFFFFF;fontStyle=1" vertex="1" parent="dNxyNK7c78bLwvsdeMH5-11">
            <mxGeometry x="1111" y="828" width="219" height="80" as="geometry" />
          </mxCell>
        </UserObject>
        <UserObject label="&lt;span style=&quot;background-color: rgb(255, 255, 255);&quot;&gt;&lt;font style=&quot;font-size: 20px;&quot;&gt;姚老師&lt;br style=&quot;font-size: 20px;&quot;&gt;&lt;/font&gt;&lt;font style=&quot;font-size: 20px;&quot;&gt;最高管理員&lt;/font&gt;&lt;/span&gt;" name="Edward Morrison" position="Brand Manager" location="Office 2" email="me@example.com" placeholders="1" link="https://www.draw.io" id="yKEikfB0ai0au9G5UeXW-22">
          <mxCell style="label;image=https://cdn3.iconfinder.com/data/icons/user-avatars-1/512/users-10-3-128.png;whiteSpace=wrap;html=1;rounded=0;glass=0;treeFolding=1;treeMoving=1;fontSize=20;labelBackgroundColor=#FFF6E3;fontStyle=1" vertex="1" parent="dNxyNK7c78bLwvsdeMH5-11">
            <mxGeometry x="1017" y="518" width="243" height="80" as="geometry" />
          </mxCell>
        </UserObject>
        <UserObject label="&lt;font style=&quot;font-size: 20px;&quot;&gt;&lt;span style=&quot;font-size: 20px;&quot;&gt;Jason&lt;/span&gt;&lt;br style=&quot;font-size: 20px;&quot;&gt;&lt;font style=&quot;font-size: 20px;&quot;&gt;管理員&lt;/font&gt;&lt;/font&gt;" name="Evan Valet" position="HR Director" location="Office 4" email="me@example.com" placeholders="1" id="yKEikfB0ai0au9G5UeXW-20">
          <mxCell style="label;image=https://cdn3.iconfinder.com/data/icons/user-avatars-1/512/users-9-2-128.png;whiteSpace=wrap;html=1;rounded=0;glass=0;treeFolding=1;treeMoving=1;fontSize=20;labelBackgroundColor=#FFFFFF;fontStyle=1" vertex="1" parent="dNxyNK7c78bLwvsdeMH5-11">
            <mxGeometry x="1111" y="668" width="219" height="80" as="geometry" />
          </mxCell>
        </UserObject>
        <mxCell id="yKEikfB0ai0au9G5UeXW-46" value="" style="image;aspect=fixed;html=1;points=[];align=center;fontSize=20;image=img/lib/azure2/management_governance/Compliance.svg;labelBackgroundColor=#FFFFFF;fontStyle=1" vertex="1" parent="dNxyNK7c78bLwvsdeMH5-11">
          <mxGeometry x="1260" y="676" width="52" height="64" as="geometry" />
        </mxCell>
        <mxCell id="yKEikfB0ai0au9G5UeXW-45" value="" style="image;aspect=fixed;html=1;points=[];align=center;fontSize=20;image=img/lib/azure2/management_governance/Compliance.svg;labelBackgroundColor=#FFFFFF;fontStyle=1" vertex="1" parent="dNxyNK7c78bLwvsdeMH5-11">
          <mxGeometry x="1260" y="836" width="52" height="64" as="geometry" />
        </mxCell>
        <mxCell id="yKEikfB0ai0au9G5UeXW-43" value="" style="image;aspect=fixed;html=1;points=[];align=center;fontSize=20;image=img/lib/azure2/management_governance/Compliance.svg;labelBackgroundColor=#FFFFFF;fontStyle=1" vertex="1" parent="dNxyNK7c78bLwvsdeMH5-11">
          <mxGeometry x="1187" y="526" width="52" height="64" as="geometry" />
        </mxCell>
        <mxCell id="yKEikfB0ai0au9G5UeXW-66" value="" style="group;fontSize=20;labelBackgroundColor=#FFF6E3;fontStyle=1" vertex="1" connectable="0" parent="dNxyNK7c78bLwvsdeMH5-11">
          <mxGeometry x="130" y="498" width="320.82" height="212" as="geometry" />
        </mxCell>
        <mxCell id="yKEikfB0ai0au9G5UeXW-86" value="" style="group;fontSize=20;labelBackgroundColor=#FFF6E3;fontStyle=1" vertex="1" connectable="0" parent="yKEikfB0ai0au9G5UeXW-66">
          <mxGeometry y="-18" width="320.82" height="230" as="geometry" />
        </mxCell>
        <mxCell id="yKEikfB0ai0au9G5UeXW-32" value="&lt;font style=&quot;font-size: 20px;&quot;&gt;RPI&lt;/font&gt;" style="image;aspect=fixed;html=1;points=[];align=center;fontSize=20;image=img/lib/azure2/iot/Industrial_IoT.svg;labelBackgroundColor=#FFF6E3;fontStyle=1" vertex="1" parent="yKEikfB0ai0au9G5UeXW-86">
          <mxGeometry x="210" y="60" width="110.82" height="120" as="geometry" />
        </mxCell>
        <mxCell id="yKEikfB0ai0au9G5UeXW-60" value="" style="sketch=0;pointerEvents=1;shadow=0;dashed=0;html=1;strokeColor=none;fillColor=#434445;aspect=fixed;labelPosition=center;verticalLabelPosition=bottom;verticalAlign=top;align=center;outlineConnect=0;shape=mxgraph.vvd.wi_fi;rotation=-120;fontSize=20;labelBackgroundColor=#FFF6E3;fontStyle=1" vertex="1" parent="yKEikfB0ai0au9G5UeXW-86">
          <mxGeometry x="135.41" y="40" width="50" height="50" as="geometry" />
        </mxCell>
        <mxCell id="yKEikfB0ai0au9G5UeXW-61" value="" style="sketch=0;pointerEvents=1;shadow=0;dashed=0;html=1;strokeColor=none;fillColor=#434445;aspect=fixed;labelPosition=center;verticalLabelPosition=bottom;verticalAlign=top;align=center;outlineConnect=0;shape=mxgraph.vvd.wi_fi;rotation=-145;fontSize=20;labelBackgroundColor=#FFF6E3;fontStyle=1" vertex="1" parent="yKEikfB0ai0au9G5UeXW-86">
          <mxGeometry x="140" y="140" width="50" height="50" as="geometry" />
        </mxCell>
        <mxCell id="yKEikfB0ai0au9G5UeXW-64" value="" style="shape=image;html=1;verticalAlign=top;verticalLabelPosition=bottom;labelBackgroundColor=#FFF6E3;imageAspect=0;aspect=fixed;image=https://cdn1.iconfinder.com/data/icons/ionicons-fill-vol-1/512/fish-128.png;fontSize=20;fontStyle=1" vertex="1" parent="yKEikfB0ai0au9G5UeXW-86">
          <mxGeometry width="90" height="90" as="geometry" />
        </mxCell>
        <mxCell id="yKEikfB0ai0au9G5UeXW-65" value="" style="shape=image;html=1;verticalAlign=top;verticalLabelPosition=bottom;labelBackgroundColor=#FFF6E3;imageAspect=0;aspect=fixed;image=https://cdn1.iconfinder.com/data/icons/ionicons-fill-vol-1/512/fish-128.png;fontSize=20;fontStyle=1" vertex="1" parent="yKEikfB0ai0au9G5UeXW-86">
          <mxGeometry y="140" width="90" height="90" as="geometry" />
        </mxCell>
        <mxCell id="yKEikfB0ai0au9G5UeXW-85" value="&lt;span style=&quot;font-size: 20px;&quot;&gt;lora&lt;/span&gt;" style="text;html=1;strokeColor=none;fillColor=none;align=center;verticalAlign=middle;whiteSpace=wrap;rounded=0;fontSize=20;labelBackgroundColor=#FFF6E3;fontStyle=1" vertex="1" parent="yKEikfB0ai0au9G5UeXW-86">
          <mxGeometry x="90" y="202" width="150" height="28" as="geometry" />
        </mxCell>
        <mxCell id="yKEikfB0ai0au9G5UeXW-87" value="" style="group;fontSize=20;labelBackgroundColor=#FFF6E3;fontStyle=1" vertex="1" connectable="0" parent="dNxyNK7c78bLwvsdeMH5-11">
          <mxGeometry x="130" y="836" width="320.82" height="212" as="geometry" />
        </mxCell>
        <mxCell id="yKEikfB0ai0au9G5UeXW-88" value="" style="group;fontSize=20;labelBackgroundColor=#FFF6E3;fontStyle=1" vertex="1" connectable="0" parent="yKEikfB0ai0au9G5UeXW-87">
          <mxGeometry y="-18" width="320.82" height="230" as="geometry" />
        </mxCell>
        <mxCell id="yKEikfB0ai0au9G5UeXW-89" value="&lt;font style=&quot;font-size: 20px;&quot;&gt;RPI&lt;/font&gt;" style="image;aspect=fixed;html=1;points=[];align=center;fontSize=20;image=img/lib/azure2/iot/Industrial_IoT.svg;labelBackgroundColor=#FFF6E3;fontStyle=1" vertex="1" parent="yKEikfB0ai0au9G5UeXW-88">
          <mxGeometry x="210" y="60" width="110.82" height="120" as="geometry" />
        </mxCell>
        <mxCell id="yKEikfB0ai0au9G5UeXW-90" value="" style="sketch=0;pointerEvents=1;shadow=0;dashed=0;html=1;strokeColor=none;fillColor=#434445;aspect=fixed;labelPosition=center;verticalLabelPosition=bottom;verticalAlign=top;align=center;outlineConnect=0;shape=mxgraph.vvd.wi_fi;rotation=-120;fontSize=20;labelBackgroundColor=#FFF6E3;fontStyle=1" vertex="1" parent="yKEikfB0ai0au9G5UeXW-88">
          <mxGeometry x="135.41" y="40" width="50" height="50" as="geometry" />
        </mxCell>
        <mxCell id="yKEikfB0ai0au9G5UeXW-91" value="" style="sketch=0;pointerEvents=1;shadow=0;dashed=0;html=1;strokeColor=none;fillColor=#434445;aspect=fixed;labelPosition=center;verticalLabelPosition=bottom;verticalAlign=top;align=center;outlineConnect=0;shape=mxgraph.vvd.wi_fi;rotation=-145;fontSize=20;labelBackgroundColor=#FFF6E3;fontStyle=1" vertex="1" parent="yKEikfB0ai0au9G5UeXW-88">
          <mxGeometry x="140" y="140" width="50" height="50" as="geometry" />
        </mxCell>
        <mxCell id="yKEikfB0ai0au9G5UeXW-92" value="" style="shape=image;html=1;verticalAlign=top;verticalLabelPosition=bottom;labelBackgroundColor=#FFF6E3;imageAspect=0;aspect=fixed;image=https://cdn1.iconfinder.com/data/icons/ionicons-fill-vol-1/512/fish-128.png;fontSize=20;fontStyle=1" vertex="1" parent="yKEikfB0ai0au9G5UeXW-88">
          <mxGeometry width="90" height="90" as="geometry" />
        </mxCell>
        <mxCell id="yKEikfB0ai0au9G5UeXW-93" value="" style="shape=image;html=1;verticalAlign=top;verticalLabelPosition=bottom;labelBackgroundColor=#FFF6E3;imageAspect=0;aspect=fixed;image=https://cdn1.iconfinder.com/data/icons/ionicons-fill-vol-1/512/fish-128.png;fontSize=20;fontStyle=1" vertex="1" parent="yKEikfB0ai0au9G5UeXW-88">
          <mxGeometry y="140" width="90" height="90" as="geometry" />
        </mxCell>
        <mxCell id="yKEikfB0ai0au9G5UeXW-94" value="&lt;span style=&quot;font-size: 20px;&quot;&gt;lora&lt;/span&gt;" style="text;html=1;strokeColor=none;fillColor=none;align=center;verticalAlign=middle;whiteSpace=wrap;rounded=0;fontSize=20;labelBackgroundColor=#FFF6E3;fontStyle=1" vertex="1" parent="yKEikfB0ai0au9G5UeXW-88">
          <mxGeometry x="90" y="202" width="150" height="28" as="geometry" />
        </mxCell>
        <mxCell id="yKEikfB0ai0au9G5UeXW-95" value="&lt;font style=&quot;font-size: 20px;&quot;&gt;傳遞資料&lt;/font&gt;" style="shape=flexArrow;endArrow=classic;startArrow=classic;html=1;rounded=0;fontSize=20;labelBackgroundColor=#FFF6E3;fontStyle=1" edge="1" parent="dNxyNK7c78bLwvsdeMH5-11">
          <mxGeometry width="100" height="100" relative="1" as="geometry">
            <mxPoint x="460" y="890" as="sourcePoint" />
            <mxPoint x="540" y="798" as="targetPoint" />
          </mxGeometry>
        </mxCell>
        <mxCell id="yKEikfB0ai0au9G5UeXW-50" value="" style="group;fontSize=20;labelBackgroundColor=#FFF6E3;fontStyle=1" vertex="1" connectable="0" parent="dNxyNK7c78bLwvsdeMH5-11">
          <mxGeometry x="554" y="546" width="557" height="430" as="geometry" />
        </mxCell>
        <mxCell id="yKEikfB0ai0au9G5UeXW-47" value="" style="rounded=1;whiteSpace=wrap;html=1;textOpacity=1;labelBackgroundColor=#FFF6E3;fontSize=20;fontStyle=1" vertex="1" parent="yKEikfB0ai0au9G5UeXW-50">
          <mxGeometry y="80" width="310" height="350" as="geometry" />
        </mxCell>
        <mxCell id="yKEikfB0ai0au9G5UeXW-28" value="" style="image;aspect=fixed;html=1;points=[];align=center;fontSize=20;image=img/lib/azure2/app_services/App_Service_Plans.svg;labelBackgroundColor=#FFF6E3;fontStyle=1" vertex="1" parent="yKEikfB0ai0au9G5UeXW-50">
          <mxGeometry x="150" y="135" width="145" height="145" as="geometry" />
        </mxCell>
        <mxCell id="yKEikfB0ai0au9G5UeXW-29" value="" style="image;aspect=fixed;html=1;points=[];align=center;fontSize=20;image=img/lib/azure2/databases/SQL_Server.svg;labelBackgroundColor=#FFF6E3;fontStyle=1" vertex="1" parent="yKEikfB0ai0au9G5UeXW-50">
          <mxGeometry x="162.5" y="300" width="99" height="99" as="geometry" />
        </mxCell>
        <mxCell id="yKEikfB0ai0au9G5UeXW-51" value="&lt;span style=&quot;background-color: rgb(255, 255, 255);&quot;&gt;&lt;font style=&quot;font-size: 20px;&quot;&gt;伺服器&lt;/font&gt;&lt;font style=&quot;font-size: 20px;&quot;&gt;ˋ&lt;/font&gt;&lt;/span&gt;" style="text;html=1;strokeColor=none;fillColor=none;align=center;verticalAlign=middle;whiteSpace=wrap;rounded=0;fontSize=20;labelBackgroundColor=#FFF6E3;fontStyle=1" vertex="1" parent="yKEikfB0ai0au9G5UeXW-50">
          <mxGeometry x="120" y="100" width="150" height="28" as="geometry" />
        </mxCell>
        <mxCell id="yKEikfB0ai0au9G5UeXW-48" value="" style="outlineConnect=0;dashed=0;verticalLabelPosition=bottom;verticalAlign=top;align=center;html=1;shape=mxgraph.aws3.mqtt_protocol;fillColor=#5294CF;gradientColor=none;fontSize=20;labelBackgroundColor=#FFF6E3;fontStyle=1" vertex="1" parent="yKEikfB0ai0au9G5UeXW-50">
          <mxGeometry x="22" y="177" width="90" height="96" as="geometry" />
        </mxCell>
        <mxCell id="yKEikfB0ai0au9G5UeXW-101" value="" style="shape=image;html=1;verticalAlign=top;verticalLabelPosition=bottom;labelBackgroundColor=#FFF6E3;imageAspect=0;aspect=fixed;image=https://cdn0.iconfinder.com/data/icons/google-material-design-3-0/48/ic_http_48px-128.png;fontSize=20;fontStyle=1" vertex="1" parent="yKEikfB0ai0au9G5UeXW-50">
          <mxGeometry x="237" y="128" width="68" height="68" as="geometry" />
        </mxCell>
        <mxCell id="yKEikfB0ai0au9G5UeXW-103" value="&lt;font style=&quot;font-size: 20px;&quot;&gt;註冊/登入&lt;/font&gt;" style="shape=flexArrow;endArrow=classic;startArrow=classic;html=1;rounded=0;fontSize=20;labelBackgroundColor=#FFF6E3;fontStyle=1" edge="1" parent="yKEikfB0ai0au9G5UeXW-50">
          <mxGeometry width="100" height="100" relative="1" as="geometry">
            <mxPoint x="447" y="422" as="sourcePoint" />
            <mxPoint x="310" y="242" as="targetPoint" />
          </mxGeometry>
        </mxCell>
        <mxCell id="yKEikfB0ai0au9G5UeXW-104" value="" style="shape=flexArrow;endArrow=classic;startArrow=classic;html=1;rounded=0;fontSize=20;labelBackgroundColor=#FFF6E3;fontStyle=1" edge="1" parent="yKEikfB0ai0au9G5UeXW-50">
          <mxGeometry width="100" height="100" relative="1" as="geometry">
            <mxPoint x="477" y="62" as="sourcePoint" />
            <mxPoint x="310" y="184" as="targetPoint" />
          </mxGeometry>
        </mxCell>
        <mxCell id="yKEikfB0ai0au9G5UeXW-173" value="&lt;font style=&quot;font-size: 20px;&quot;&gt;管理帳戶&lt;/font&gt;" style="edgeLabel;html=1;align=center;verticalAlign=middle;resizable=0;points=[];fontSize=20;labelBackgroundColor=#FFF6E3;fontStyle=1" vertex="1" connectable="0" parent="yKEikfB0ai0au9G5UeXW-104">
          <mxGeometry x="-0.3913" y="-3" relative="1" as="geometry">
            <mxPoint as="offset" />
          </mxGeometry>
        </mxCell>
        <mxCell id="yKEikfB0ai0au9G5UeXW-141" value="" style="shape=flexArrow;endArrow=classic;startArrow=classic;html=1;rounded=0;fontSize=20;labelBackgroundColor=#FFF6E3;fontStyle=1" edge="1" parent="yKEikfB0ai0au9G5UeXW-50">
          <mxGeometry width="100" height="100" relative="1" as="geometry">
            <mxPoint x="557" y="172" as="sourcePoint" />
            <mxPoint x="317" y="202" as="targetPoint" />
          </mxGeometry>
        </mxCell>
        <mxCell id="yKEikfB0ai0au9G5UeXW-172" value="&lt;font style=&quot;font-size: 20px;&quot;&gt;管理帳戶&lt;/font&gt;" style="edgeLabel;html=1;align=center;verticalAlign=middle;resizable=0;points=[];fontSize=20;labelBackgroundColor=#FFF6E3;fontStyle=1" vertex="1" connectable="0" parent="yKEikfB0ai0au9G5UeXW-141">
          <mxGeometry x="0.0073" y="2" relative="1" as="geometry">
            <mxPoint as="offset" />
          </mxGeometry>
        </mxCell>
        <mxCell id="yKEikfB0ai0au9G5UeXW-142" value="" style="shape=flexArrow;endArrow=classic;startArrow=classic;html=1;rounded=0;fontSize=20;labelBackgroundColor=#FFF6E3;fontStyle=1" edge="1" parent="yKEikfB0ai0au9G5UeXW-50">
          <mxGeometry width="100" height="100" relative="1" as="geometry">
            <mxPoint x="557" y="332" as="sourcePoint" />
            <mxPoint x="320" y="224" as="targetPoint" />
          </mxGeometry>
        </mxCell>
        <mxCell id="yKEikfB0ai0au9G5UeXW-171" value="&lt;font style=&quot;font-size: 20px; background-color: rgb(255, 246, 227);&quot;&gt;查看魚資料&lt;/font&gt;" style="edgeLabel;html=1;align=center;verticalAlign=middle;resizable=0;points=[];fontSize=20;labelBackgroundColor=#FFFFFF;fontStyle=1" vertex="1" connectable="0" parent="yKEikfB0ai0au9G5UeXW-142">
          <mxGeometry x="-0.4493" y="-1" relative="1" as="geometry">
            <mxPoint as="offset" />
          </mxGeometry>
        </mxCell>
        <UserObject label="&lt;font style=&quot;font-size: 20px;&quot;&gt;&lt;span style=&quot;background-color: rgb(255, 255, 255);&quot;&gt;&lt;span style=&quot;font-size: 20px;&quot;&gt;匿名使用者&lt;/span&gt;&lt;/span&gt;&lt;br style=&quot;font-size: 20px;&quot;&gt;&lt;/font&gt;" name="Alison Donovan" position="System Admin" location="Office 3" email="me@example.com" placeholders="1" link="https://www.draw.io" id="yKEikfB0ai0au9G5UeXW-99">
          <mxCell style="label;image=https://cdn3.iconfinder.com/data/icons/user-avatars-1/512/users-2-128.png;whiteSpace=wrap;html=1;rounded=0;glass=0;fontSize=20;labelBackgroundColor=#FFF6E3;fontStyle=1" vertex="1" parent="dNxyNK7c78bLwvsdeMH5-11">
            <mxGeometry x="1007" y="976" width="180" height="80" as="geometry" />
          </mxCell>
        </UserObject>
        <mxCell id="yKEikfB0ai0au9G5UeXW-49" value="&lt;font style=&quot;font-size: 40px;&quot;&gt;虛擬機&lt;/font&gt;" style="text;html=1;strokeColor=none;fillColor=none;align=center;verticalAlign=middle;whiteSpace=wrap;rounded=0;fontSize=20;labelBackgroundColor=#FFF6E3;fontStyle=1" vertex="1" parent="dNxyNK7c78bLwvsdeMH5-11">
          <mxGeometry x="640" y="998" width="150" height="28" as="geometry" />
        </mxCell>
        <mxCell id="yKEikfB0ai0au9G5UeXW-167" value="" style="shape=flexArrow;endArrow=classic;html=1;rounded=0;fontSize=20;labelBackgroundColor=#FFF6E3;fontStyle=1" edge="1" parent="dNxyNK7c78bLwvsdeMH5-11">
          <mxGeometry width="50" height="50" relative="1" as="geometry">
            <mxPoint x="460" y="660" as="sourcePoint" />
            <mxPoint x="540" y="740" as="targetPoint" />
          </mxGeometry>
        </mxCell>
        <mxCell id="yKEikfB0ai0au9G5UeXW-178" value="&lt;font style=&quot;font-size: 20px;&quot;&gt;發送警報&lt;/font&gt;" style="edgeLabel;html=1;align=center;verticalAlign=middle;resizable=0;points=[];fontSize=20;labelBackgroundColor=#FFF6E3;fontStyle=1" vertex="1" connectable="0" parent="yKEikfB0ai0au9G5UeXW-167">
          <mxGeometry x="0.0563" y="-3" relative="1" as="geometry">
            <mxPoint as="offset" />
          </mxGeometry>
        </mxCell>
        <mxCell id="yKEikfB0ai0au9G5UeXW-156" value="" style="group;fontSize=20;labelBackgroundColor=#FFF6E3;fontStyle=1" vertex="1" connectable="0" parent="dNxyNK7c78bLwvsdeMH5-11">
          <mxGeometry x="559" y="380" width="150" height="108" as="geometry" />
        </mxCell>
        <mxCell id="yKEikfB0ai0au9G5UeXW-153" value="&lt;span style=&quot;font-size: 20px;&quot;&gt;LineNotify&lt;/span&gt;" style="text;html=1;strokeColor=none;fillColor=none;align=center;verticalAlign=middle;whiteSpace=wrap;rounded=0;fontSize=20;labelBackgroundColor=#FFF6E3;fontStyle=1" vertex="1" parent="yKEikfB0ai0au9G5UeXW-156">
          <mxGeometry x="-27" y="80" width="150" height="28" as="geometry" />
        </mxCell>
        <mxCell id="yKEikfB0ai0au9G5UeXW-197" value="" style="group" vertex="1" connectable="0" parent="dNxyNK7c78bLwvsdeMH5-11">
          <mxGeometry x="68" y="257" width="399" height="71" as="geometry" />
        </mxCell>
        <mxCell id="yKEikfB0ai0au9G5UeXW-194" value="&lt;font color=&quot;#0000ff&quot; style=&quot;font-size: 50px;&quot;&gt;IOT端&lt;/font&gt;" style="text;html=1;strokeColor=none;fillColor=none;align=center;verticalAlign=middle;whiteSpace=wrap;rounded=0;fontSize=20;labelBackgroundColor=#FFF6E3;fontStyle=1" vertex="1" parent="yKEikfB0ai0au9G5UeXW-197">
          <mxGeometry x="104" width="200" height="58" as="geometry" />
        </mxCell>
        <mxCell id="yKEikfB0ai0au9G5UeXW-196" value="" style="line;strokeWidth=2;html=1;sketch=1;hachureGap=4;jiggle=2;curveFitting=1;fontFamily=Architects Daughter;fontSource=https%3A%2F%2Ffonts.googleapis.com%2Fcss%3Ffamily%3DArchitects%2BDaughter;fontSize=20;" vertex="1" parent="yKEikfB0ai0au9G5UeXW-197">
          <mxGeometry y="61" width="399" height="10" as="geometry" />
        </mxCell>
        <mxCell id="yKEikfB0ai0au9G5UeXW-198" value="" style="group" vertex="1" connectable="0" parent="dNxyNK7c78bLwvsdeMH5-11">
          <mxGeometry x="533" y="260" width="399" height="71" as="geometry" />
        </mxCell>
        <mxCell id="yKEikfB0ai0au9G5UeXW-199" value="&lt;font color=&quot;#0000ff&quot;&gt;&lt;span style=&quot;font-size: 50px;&quot;&gt;後端&lt;/span&gt;&lt;/font&gt;" style="text;html=1;strokeColor=none;fillColor=none;align=center;verticalAlign=middle;whiteSpace=wrap;rounded=0;fontSize=20;labelBackgroundColor=#FFF6E3;fontStyle=1" vertex="1" parent="yKEikfB0ai0au9G5UeXW-198">
          <mxGeometry x="104" width="200" height="58" as="geometry" />
        </mxCell>
        <mxCell id="yKEikfB0ai0au9G5UeXW-217" value="" style="line;strokeWidth=2;html=1;sketch=1;hachureGap=4;jiggle=2;curveFitting=1;fontFamily=Architects Daughter;fontSource=https%3A%2F%2Ffonts.googleapis.com%2Fcss%3Ffamily%3DArchitects%2BDaughter;fontSize=20;" vertex="1" parent="yKEikfB0ai0au9G5UeXW-198">
          <mxGeometry y="58" width="399" height="10" as="geometry" />
        </mxCell>
        <mxCell id="yKEikfB0ai0au9G5UeXW-162" value="" style="shape=flexArrow;endArrow=classic;startArrow=classic;html=1;rounded=0;exitX=0.5;exitY=1;exitDx=0;exitDy=0;fontSize=20;labelBackgroundColor=#FFF6E3;fontStyle=1" edge="1" parent="dNxyNK7c78bLwvsdeMH5-11">
          <mxGeometry width="100" height="100" relative="1" as="geometry">
            <mxPoint x="846.86" y="504.9999999999999" as="sourcePoint" />
            <mxPoint x="801.86" y="617" as="targetPoint" />
          </mxGeometry>
        </mxCell>
        <mxCell id="yKEikfB0ai0au9G5UeXW-176" value="&lt;font style=&quot;font-size: 20px;&quot;&gt;資料詢問&lt;/font&gt;" style="edgeLabel;html=1;align=center;verticalAlign=middle;resizable=0;points=[];fontSize=20;labelBackgroundColor=#FFF6E3;fontStyle=1" vertex="1" connectable="0" parent="yKEikfB0ai0au9G5UeXW-162">
          <mxGeometry x="-0.6336" y="1" relative="1" as="geometry">
            <mxPoint x="-18" y="40" as="offset" />
          </mxGeometry>
        </mxCell>
        <mxCell id="yKEikfB0ai0au9G5UeXW-149" value="" style="html=1;verticalLabelPosition=bottom;align=center;labelBackgroundColor=#FFF6E3;verticalAlign=top;strokeWidth=2;strokeColor=#0080F0;shadow=0;dashed=0;shape=mxgraph.ios7.icons.bell;fontSize=20;fontStyle=1" vertex="1" parent="dNxyNK7c78bLwvsdeMH5-11">
          <mxGeometry x="565" y="379" width="72.73" height="70" as="geometry" />
        </mxCell>
        <mxCell id="yKEikfB0ai0au9G5UeXW-159" value="" style="group;fontSize=20;labelBackgroundColor=#FFF6E3;fontStyle=1" vertex="1" connectable="0" parent="dNxyNK7c78bLwvsdeMH5-11">
          <mxGeometry x="749.36" y="349" width="150" height="148" as="geometry" />
        </mxCell>
        <mxCell id="yKEikfB0ai0au9G5UeXW-157" value="" style="shape=image;html=1;verticalAlign=top;verticalLabelPosition=bottom;labelBackgroundColor=#FFF6E3;imageAspect=0;aspect=fixed;image=https://cdn4.iconfinder.com/data/icons/social-media-and-logos-12/32/Logo_reddit_robot-128.png;fontSize=20;fontStyle=1" vertex="1" parent="yKEikfB0ai0au9G5UeXW-159">
          <mxGeometry x="60" y="-8" width="128" height="128" as="geometry" />
        </mxCell>
        <mxCell id="yKEikfB0ai0au9G5UeXW-170" value="帳戶通知" style="shape=flexArrow;endArrow=classic;html=1;rounded=0;fontSize=20;labelBackgroundColor=#FFF6E3;fontStyle=1" edge="1" parent="dNxyNK7c78bLwvsdeMH5-11">
          <mxGeometry width="50" height="50" relative="1" as="geometry">
            <mxPoint x="741" y="612" as="sourcePoint" />
            <mxPoint x="741" y="478" as="targetPoint" />
          </mxGeometry>
        </mxCell>
        <mxCell id="yKEikfB0ai0au9G5UeXW-165" value="" style="shape=flexArrow;endArrow=classic;html=1;rounded=0;fontSize=20;labelBackgroundColor=#FFF6E3;fontStyle=1" edge="1" parent="dNxyNK7c78bLwvsdeMH5-11">
          <mxGeometry width="50" height="50" relative="1" as="geometry">
            <mxPoint x="693" y="616" as="sourcePoint" />
            <mxPoint x="607.36" y="497" as="targetPoint" />
          </mxGeometry>
        </mxCell>
        <mxCell id="yKEikfB0ai0au9G5UeXW-177" value="&lt;font style=&quot;font-size: 20px;&quot;&gt;警報通知&lt;/font&gt;" style="edgeLabel;html=1;align=center;verticalAlign=middle;resizable=0;points=[];fontSize=20;labelBackgroundColor=#FFF6E3;fontStyle=1" vertex="1" connectable="0" parent="yKEikfB0ai0au9G5UeXW-165">
          <mxGeometry x="0.4823" y="-2" relative="1" as="geometry">
            <mxPoint x="-1" y="31" as="offset" />
          </mxGeometry>
        </mxCell>
        <mxCell id="yKEikfB0ai0au9G5UeXW-158" value="&lt;span style=&quot;font-size: 20px;&quot;&gt;LineRobot&lt;br style=&quot;font-size: 20px;&quot;&gt;&lt;/span&gt;" style="text;html=1;strokeColor=none;fillColor=none;align=center;verticalAlign=middle;whiteSpace=wrap;rounded=0;fontSize=20;labelBackgroundColor=#FFF6E3;fontStyle=1" vertex="1" parent="dNxyNK7c78bLwvsdeMH5-11">
          <mxGeometry x="802.36" y="469" width="150" height="28" as="geometry" />
        </mxCell>
        <mxCell id="yKEikfB0ai0au9G5UeXW-169" value="&lt;font style=&quot;font-size: 20px;&quot;&gt;私人信箱&lt;/font&gt;" style="html=1;verticalLabelPosition=bottom;align=center;labelBackgroundColor=#FFF6E3;verticalAlign=top;strokeWidth=2;strokeColor=#0080F0;shadow=0;dashed=0;shape=mxgraph.ios7.icons.mail;fontSize=20;fontStyle=1" vertex="1" parent="dNxyNK7c78bLwvsdeMH5-11">
          <mxGeometry x="682" y="375" width="116" height="70" as="geometry" />
        </mxCell>
        <mxCell id="yKEikfB0ai0au9G5UeXW-214" value="" style="group" vertex="1" connectable="0" parent="dNxyNK7c78bLwvsdeMH5-11">
          <mxGeometry x="964" y="260" width="436" height="71" as="geometry" />
        </mxCell>
        <mxCell id="yKEikfB0ai0au9G5UeXW-220" value="" style="group" vertex="1" connectable="0" parent="yKEikfB0ai0au9G5UeXW-214">
          <mxGeometry x="22.000000000000014" y="3" width="399" height="68" as="geometry" />
        </mxCell>
        <mxCell id="yKEikfB0ai0au9G5UeXW-215" value="&lt;font color=&quot;#0000ff&quot;&gt;&lt;span style=&quot;font-size: 50px;&quot;&gt;前端&lt;/span&gt;&lt;/font&gt;" style="text;html=1;strokeColor=none;fillColor=none;align=center;verticalAlign=middle;whiteSpace=wrap;rounded=0;fontSize=20;labelBackgroundColor=#FFF6E3;fontStyle=1" vertex="1" parent="yKEikfB0ai0au9G5UeXW-220">
          <mxGeometry x="115.63999999999999" width="200" height="58" as="geometry" />
        </mxCell>
        <mxCell id="yKEikfB0ai0au9G5UeXW-219" value="" style="line;strokeWidth=2;html=1;sketch=1;hachureGap=4;jiggle=2;curveFitting=1;fontFamily=Architects Daughter;fontSource=https%3A%2F%2Ffonts.googleapis.com%2Fcss%3Ffamily%3DArchitects%2BDaughter;fontSize=20;" vertex="1" parent="yKEikfB0ai0au9G5UeXW-220">
          <mxGeometry y="58" width="399" height="10" as="geometry" />
        </mxCell>
      </root>
    </mxGraphModel>
  </diagram>
</mxfile>
